PathFileType	4	(X/Y/Z)	 2.5Hzhigh3min.trc
DataRate	CameraRate	NumFrames	NumMarkers	Units	OrigDataRate	OrigDataStartFrame	OrigNumFrames
200	200	8	35	m	200	876	1000
Frame#	Time	C7			LSH			RSH			MAN			RASI			LASI			HIPR			HIPL			RPSI			LPSI			COX			RTHI1			RTHI2			RTHI3			RTHI4			RSHA1			RSHA2			RSHA3			RSHA4			RHEEL			RMET5			RMET1			RTOE			LTHI1			LTHI2			LTHI3			LTHI4			LSHA1			LSHA2			LSHA3			LSHA4			LHEEL			LMET5			LMET1			LTOE			
		X1	Y1	Z1	X2	Y2	Z2	X3	Y3	Z3	X4	Y4	Z4	X5	Y5	Z5	X6	Y6	Z6	X7	Y7	Z7	X8	Y8	Z8	X9	Y9	Z9	X10	Y10	Z10	X11	Y11	Z11	X12	Y12	Z12	X13	Y13	Z13	X14	Y14	Z14	X15	Y15	Z15	X16	Y16	Z16	X17	Y17	Z17	X18	Y18	Z18	X19	Y19	Z19	X20	Y20	Z20	X21	Y21	Z21	X22	Y22	Z22	X23	Y23	Z23	X24	Y24	Z24	X25	Y25	Z25	X26	Y26	Z26	X27	Y27	Z27	X28	Y28	Z28	X29	Y29	Z29	X30	Y30	Z30	X31	Y31	Z31	X32	Y32	Z32	X33	Y33	Z33	X34	Y34	Z34	X35	Y35	Z35	
876	4.3800	-0.287872	1.444622	-0.534652	-0.226385	1.457726	-0.699991	-0.234550	1.428248	-0.376732	-0.152402	1.404491	-0.534862	-0.117780	1.012928	-0.432798	-0.131285	1.009770	-0.659162	-0.180972	1.059838	-0.401980	-0.188827	1.074216	-0.680660	-0.277674	1.039406	-0.485830	-0.283095	1.041578	-0.585819	-0.281437	1.049729	-0.533739	-0.194682	0.808330	-0.365239	-0.171269	0.753679	-0.366881	-0.111217	0.777625	-0.376244	-0.128652	0.836292	-0.375747	-0.225642	0.410602	-0.361369	-0.242302	0.370772	-0.367221	-0.185417	0.355970	-0.380744	-0.173739	0.394286	-0.379633	-0.324890	0.151536	-0.419863	-0.210555	0.037897	-0.378989	-0.190128	0.037381	-0.453837	-0.167903	0.029112	-0.445182	-0.214945	0.817414	-0.721240	-0.195893	0.758580	-0.720661	-0.133272	0.773197	-0.715699	-0.143135	0.832553	-0.715740	-0.276351	0.395490	-0.705158	-0.287965	0.356486	-0.701701	-0.227232	0.344070	-0.712641	-0.223509	0.387849	-0.714508	-0.345105	0.149357	-0.659069	-0.238478	0.040905	-0.710426	-0.203048	0.039452	-0.644197	-0.185100	0.029435	-0.647478	
877	4.3850	-0.287689	1.449219	-0.534705	-0.226316	1.462577	-0.699665	-0.234330	1.433342	-0.377206	-0.152639	1.409698	-0.534955	-0.117838	1.017331	-0.433172	-0.131272	1.014289	-0.659076	-0.180657	1.064857	-0.402443	-0.188446	1.079734	-0.680536	-0.277149	1.044678	-0.485945	-0.282676	1.046972	-0.585921	-0.281115	1.054916	-0.533849	-0.195579	0.813054	-0.365058	-0.172457	0.758274	-0.366417	-0.112211	0.781910	-0.375481	-0.129363	0.840641	-0.375477	-0.227528	0.414292	-0.361628	-0.243337	0.374132	-0.367534	-0.186127	0.360157	-0.379724	-0.175063	0.398754	-0.378727	-0.321435	0.154914	-0.419852	-0.209492	0.038915	-0.379426	-0.189125	0.038239	-0.453489	-0.167305	0.029431	-0.444684	-0.216225	0.822767	-0.721457	-0.197392	0.763835	-0.721341	-0.134672	0.778227	-0.716875	-0.144356	0.837622	-0.716523	-0.277730	0.398793	-0.704833	-0.288672	0.359532	-0.701425	-0.228028	0.348114	-0.713803	-0.224991	0.391963	-0.715342	-0.341687	0.152562	-0.659611	-0.237228	0.041862	-0.710604	-0.202056	0.040299	-0.644769	-0.184485	0.029922	-0.648404	
878	4.3900	-0.287523	1.453575	-0.534740	-0.226239	1.467173	-0.699339	-0.234100	1.438182	-0.377634	-0.152818	1.414632	-0.535028	-0.117912	1.021459	-0.433563	-0.131258	1.018532	-0.659016	-0.180336	1.069543	-0.402875	-0.187971	1.084934	-0.680460	-0.276647	1.049749	-0.486078	-0.282260	1.052165	-0.586073	-0.280801	1.059916	-0.533987	-0.196533	0.817539	-0.364914	-0.173686	0.762635	-0.365971	-0.113258	0.785955	-0.374730	-0.130131	0.844756	-0.375183	-0.229365	0.417761	-0.361948	-0.244333	0.377323	-0.367946	-0.186849	0.364134	-0.378783	-0.176387	0.402988	-0.377891	-0.318154	0.158224	-0.419688	-0.208356	0.040146	-0.379820	-0.187991	0.039279	-0.453092	-0.166558	0.029814	-0.444108	-0.217587	0.827914	-0.721572	-0.198971	0.768896	-0.721947	-0.136153	0.783068	-0.718067	-0.145641	0.842489	-0.717307	-0.279034	0.401879	-0.704435	-0.289330	0.362385	-0.701105	-0.228814	0.351938	-0.714884	-0.226445	0.395851	-0.716089	-0.338497	0.155665	-0.660317	-0.235969	0.042942	-0.710842	-0.200885	0.041397	-0.645532	-0.183687	0.030639	-0.649559	
879	4.3950	-0.287374	1.457670	-0.534757	-0.226103	1.471483	-0.699020	-0.233869	1.442731	-0.378054	-0.152997	1.419272	-0.535091	-0.117991	1.025305	-0.433966	-0.131248	1.022496	-0.658984	-0.180005	1.073892	-0.403274	-0.187408	1.089779	-0.680420	-0.276181	1.054608	-0.486234	-0.281855	1.057138	-0.586281	-0.280500	1.064717	-0.534151	-0.197528	0.821763	-0.364823	-0.174949	0.766723	-0.365567	-0.114350	0.789746	-0.374015	-0.130946	0.848620	-0.374873	-0.231108	0.421017	-0.362280	-0.245267	0.380359	-0.368400	-0.187559	0.367890	-0.377938	-0.177668	0.406949	-0.377147	-0.315064	0.161407	-0.419410	-0.207152	0.041605	-0.380116	-0.186710	0.040525	-0.452656	-0.165648	0.030299	-0.443466	-0.219006	0.832821	-0.721592	-0.200620	0.773725	-0.722448	-0.137706	0.787676	-0.719252	-0.146978	0.847114	-0.718082	-0.280235	0.404743	-0.704003	-0.289925	0.365066	-0.700776	-0.229568	0.355535	-0.715875	-0.227825	0.399510	-0.716768	-0.335611	0.158643	-0.661136	-0.234731	0.044172	-0.711156	-0.199519	0.042787	-0.646509	-0.182675	0.031656	-0.650932	
880	4.4000	-0.287244	1.461494	-0.534759	-0.226050	1.475543	-0.698705	-0.233646	1.446976	-0.378447	-0.153180	1.423598	-0.535140	-0.118076	1.028865	-0.434383	-0.131245	1.026167	-0.658983	-0.179671	1.077912	-0.403636	-0.186796	1.094245	-0.680421	-0.275759	1.059236	-0.486414	-0.281465	1.061871	-0.586545	-0.280212	1.069300	-0.534346	-0.198556	0.825706	-0.364772	-0.176231	0.770540	-0.365228	-0.115489	0.793266	-0.373370	-0.131802	0.852214	-0.374550	-0.232693	0.424040	-0.362545	-0.246125	0.383215	-0.368853	-0.188228	0.371412	-0.377204	-0.178858	0.410643	-0.376503	-0.312226	0.164417	-0.419043	-0.205885	0.043276	-0.380266	-0.185275	0.041969	-0.452174	-0.164553	0.030958	-0.442756	-0.220461	0.837439	-0.721469	-0.202334	0.778292	-0.722838	-0.139326	0.792011	-0.720414	-0.148362	0.851450	-0.718831	-0.281305	0.407431	-0.703609	-0.290446	0.367607	-0.700483	-0.230257	0.358916	-0.716758	-0.229085	0.402930	-0.717375	-0.333097	0.161453	-0.661971	-0.233522	0.045580	-0.711565	-0.197964	0.044482	-0.647707	-0.181429	0.033023	-0.652507	
881	4.4050	-0.287134	1.465034	-0.534750	-0.226030	1.479329	-0.698402	-0.233433	1.450911	-0.378798	-0.153362	1.427597	-0.535178	-0.118172	1.032141	-0.434802	-0.131254	1.029538	-0.659009	-0.179342	1.081610	-0.403961	-0.186160	1.098317	-0.680459	-0.275390	1.063636	-0.486610	-0.281103	1.066354	-0.586874	-0.279944	1.073665	-0.534573	-0.199601	0.829355	-0.364796	-0.177509	0.774087	-0.364970	-0.116640	0.796520	-0.372779	-0.132687	0.855540	-0.374227	-0.234079	0.426846	-0.362750	-0.246886	0.385924	-0.369200	-0.188821	0.374701	-0.376586	-0.179921	0.414068	-0.375969	-0.309707	0.167193	-0.418637	-0.204557	0.045126	-0.380256	-0.183639	0.043655	-0.451663	-0.163253	0.031884	-0.442002	-0.221930	0.841733	-0.721205	-0.204100	0.782555	-0.723095	-0.141004	0.796021	-0.721530	-0.149787	0.855477	-0.719567	-0.282213	0.409987	-0.703298	-0.290881	0.370035	-0.700255	-0.230860	0.362080	-0.717533	-0.230178	0.406118	-0.717917	-0.330988	0.164066	-0.662735	-0.232359	0.047210	-0.712110	-0.196234	0.046463	-0.649137	-0.179949	0.034747	-0.654267	
882	4.4100	-0.287046	1.468286	-0.534731	-0.226027	1.482833	-0.698122	-0.233236	1.454525	-0.379089	-0.153537	1.431262	-0.535208	-0.118283	1.035140	-0.435215	-0.131275	1.032609	-0.659060	-0.179014	1.085010	-0.404256	-0.185521	1.101987	-0.680525	-0.275085	1.067786	-0.486826	-0.280776	1.070566	-0.587220	-0.279702	1.077792	-0.534833	-0.200662	0.832713	-0.364870	-0.178781	0.777364	-0.364804	-0.117792	0.799520	-0.372223	-0.133597	0.858607	-0.373904	-0.235229	0.429473	-0.362900	-0.247534	0.388504	-0.369424	-0.189313	0.377768	-0.376093	-0.180819	0.417227	-0.375541	-0.307549	0.169706	-0.418254	-0.203178	0.047126	-0.380094	-0.181860	0.045562	-0.451100	-0.161740	0.033136	-0.441189	-0.223399	0.845674	-0.720802	-0.205902	0.786481	-0.723216	-0.142732	0.799687	-0.722594	-0.151240	0.859159	-0.720294	-0.282939	0.412439	-0.703101	-0.291223	0.372385	-0.700129	-0.231348	0.365026	-0.718194	-0.231068	0.409084	-0.718403	-0.329287	0.166467	-0.663342	-0.231245	0.049096	-0.712855	-0.194379	0.048696	-0.650786	-0.178266	0.036795	-0.656178	
883	4.4150	-0.286977	1.471252	-0.534702	-0.226043	1.486050	-0.697880	-0.233057	1.457816	-0.379297	-0.153700	1.434587	-0.535229	-0.118413	1.037884	-0.435608	-0.131311	1.035394	-0.659127	-0.178713	1.088133	-0.404519	-0.184907	1.105252	-0.680610	-0.274849	1.071682	-0.487057	-0.280489	1.074488	-0.587577	-0.279500	1.081668	-0.535111	-0.201729	0.835770	-0.365013	-0.180039	0.780356	-0.364737	-0.118934	0.802292	-0.371711	-0.134523	0.861423	-0.373598	-0.236118	0.431968	-0.362973	-0.248053	0.390954	-0.369517	-0.189686	0.380609	-0.375721	-0.181523	0.420136	-0.375243	-0.305773	0.171951	-0.417973	-0.201744	0.049269	-0.379799	-0.179959	0.047680	-0.450475	-0.160034	0.034745	-0.440333	-0.224859	0.849236	-0.720272	-0.207726	0.790037	-0.723193	-0.144495	0.802978	-0.723598	-0.152707	0.862451	-0.720973	-0.283479	0.414795	-0.703040	-0.291474	0.374673	-0.700119	-0.231708	0.367774	-0.718742	-0.231731	0.411836	-0.718841	-0.327983	0.168639	-0.663744	-0.230176	0.051238	-0.713832	-0.192451	0.051128	-0.652637	-0.176442	0.039106	-0.658218	
